<svg width="36" height="36" viewBox="0 0 36 36" fill="none" xmlns="http://www.w3.org/2000/svg">
<path d="M34 29.096C33.583 28.133 33.104 27.088 32 27.088H31C32.104 27.088 33 26.189 33 25.08V8.008C33 6.899 32.104 6 31 6H5C3.896 6 3 6.899 3 8.008V25.08C3 26.189 3.896 27.088 5 27.088H4C2.896 27.088 2.333 28.092 2 29.096L0 33.991C0 35.101 0.896 36 2 36H34C35.104 36 36 35.101 36 33.992L34 29.096Z" fill="#CCD6DD"/>
<path d="M0.00805664 34.075L0.0140566 34.132L0.184057 34.824C0.500057 35.516 1.19206 36 2.00006 36H34.0001C35.0761 36 35.9471 35.145 35.9921 34.075H0.00805664Z" fill="#9AAAB4"/>
<path d="M31 24.075C31 24.63 30.553 25.079 30 25.079H6C5.448 25.079 5 24.63 5 24.075V9.013C5 8.458 5.448 8.009 6 8.009H30C30.553 8.009 31 8.459 31 9.013V24.075Z" fill="#5DADEC"/>
<path d="M32.9061 31.042L32.1461 28.867C31.9071 28.407 31.5111 28.03 30.9581 28.03H5.11011C4.55811 28.03 4.20411 28.438 3.95411 29.066L3.26611 31.043C3.04711 31.639 3.71411 32.047 4.26611 32.047H11.8441C11.8441 32.047 12.7811 32 12.9471 31.439C13.1391 30.791 13.3621 29.815 13.4101 29.643C13.4841 29.379 13.7981 29.112 14.2661 29.112H22.8441C23.3441 29.112 23.5901 29.365 23.6551 29.678C23.6971 29.882 23.9671 30.819 24.0931 31.46C24.2041 32.031 25.3141 32.046 25.3141 32.046H31.9081C32.4591 32.046 33.1251 31.575 32.9061 31.042Z" fill="#AEBBC1"/>
<path d="M22.3749 33.113H14.5939C14.2189 33.113 14.0559 32.77 14.1099 32.438C14.1639 32.107 14.4689 30.645 14.4929 30.475C14.5159 30.304 14.7669 30.1 15.0169 30.1H22.0319C22.3289 30.1 22.5219 30.263 22.5819 30.589C22.6409 30.916 22.8839 32.23 22.9029 32.53C22.9219 32.831 22.7339 33.113 22.3749 33.113Z" fill="#9AAAB4"/>
</svg>
