<svg width="36" height="36" viewBox="0 0 36 36" fill="none" xmlns="http://www.w3.org/2000/svg">
<g clip-path="url(#clip0_7_30127)">
<path d="M34.2469 6.324L31.5049 9.067C31.5049 9.067 29.6759 9.981 27.8479 8.152C26.0189 6.324 26.9329 4.495 26.9329 4.495L29.6759 1.752C30.5909 0.838 29.4919 0 28.6669 0C24.6159 0 21.3329 3.283 21.3329 7.333C21.3329 7.902 21.4049 8.454 21.5269 8.986L15.3279 15.185L20.8129 20.67L27.0119 14.472C27.5449 14.594 28.0959 14.666 28.6659 14.666C32.7159 14.666 35.9989 11.383 35.9989 7.333C35.9999 6.503 35.1609 5.41 34.2469 6.324ZM15.2199 15.364L3.03092 27.552C1.53592 29.048 1.53592 31.473 3.03092 32.969C4.52792 34.464 6.95192 34.464 8.44792 32.969L20.6349 20.781L15.2199 15.364ZM5.76292 31.838C4.94392 31.838 4.28092 31.174 4.28092 30.356C4.28092 29.538 4.94492 28.873 5.76292 28.873C6.58192 28.873 7.24492 29.537 7.24492 30.356C7.24492 31.174 6.58192 31.838 5.76292 31.838Z" fill="#8899A6"/>
<path d="M30.8301 33.279C31.9961 34.445 33.8521 34.5 34.9511 33.4C36.0511 32.3 35.9961 30.445 34.8301 29.279L11.5651 6.014C10.3981 4.847 8.5441 4.793 7.4441 5.893C6.3441 6.993 6.3991 8.848 7.5651 10.014L30.8301 33.279Z" fill="#F4900C"/>
<path d="M21.444 0.892989C21.444 0.892989 15.444 -2.10701 10.444 2.89299L3.44396 9.89299C3.44396 9.89299 2.44396 8.89299 1.44396 9.89299L0.443956 10.893C0.443956 10.893 -0.556044 11.893 0.443956 12.893L4.44396 16.893C4.44396 16.893 5.44396 17.893 6.44396 16.893L7.44396 15.893C7.44396 15.893 8.44396 14.893 7.44396 13.893L7.36596 13.815C8.13596 13.072 9.28896 12.315 10.444 12.893L14.444 8.89299C14.444 8.89299 13.444 5.89299 15.444 3.89299C17.444 1.89299 18.444 1.89299 20.444 1.89299C22.444 1.89299 21.444 0.892989 21.444 0.892989Z" fill="#66757F"/>
</g>
<defs>
<clipPath id="clip0_7_30127">
<rect width="36" height="36" fill="white"/>
</clipPath>
</defs>
</svg>
