<svg width="36" height="36" viewBox="0 0 36 36" fill="none" xmlns="http://www.w3.org/2000/svg">
<path d="M35 36V31C35 27.686 32.314 25 29 25H13C9.687 25 7 27.686 7 31V36H35Z" fill="#FA743E"/>
<path d="M16.64 25.106C16.64 26 19 27.099 21 27.099C23 27.099 25.359 26 25.359 25.107V21.29H16.639V25.106H16.64Z" fill="#FFDC5D"/>
<path d="M16.632 23.121C17.848 24.495 19.356 24.867 20.996 24.867C22.635 24.867 24.142 24.494 25.359 23.121V19.63H16.631V23.121H16.632Z" fill="#F9CA55"/>
<path d="M24.731 0.530986C22.806 -0.0920136 18.276 0.0779864 17.143 1.54999C14.199 1.60699 10.745 4.26799 10.292 7.77799C9.84401 11.253 10.843 12.866 11.198 15.479C11.601 18.439 13.265 19.386 14.595 19.782C16.509 22.311 18.544 22.203 21.961 22.203C28.633 22.203 31.811 17.739 32.092 10.156C32.262 5.57099 29.571 2.09699 24.731 0.530986Z" fill="#FFAC33"/>
<path d="M28.547 10.481C27.901 9.58701 27.075 8.86701 25.263 8.61301C25.943 8.92401 26.594 10 26.679 10.595C26.764 11.19 26.849 11.671 26.311 11.076C24.156 8.69401 21.809 9.63201 19.484 8.17701C17.86 7.16101 17.365 6.03601 17.365 6.03601C17.365 6.03601 17.167 7.53601 14.704 9.06501C13.99 9.50801 13.138 10.495 12.666 11.953C12.326 13.001 12.432 13.935 12.432 15.531C12.432 20.191 16.273 24.109 21.01 24.109C25.747 24.109 29.588 20.156 29.588 15.531C29.586 12.633 29.283 11.5 28.547 10.481Z" fill="#FFDC5D"/>
<path d="M21.961 17.914H20.055C19.792 17.914 19.578 17.701 19.578 17.437C19.578 17.173 19.791 16.96 20.055 16.96H21.961C22.224 16.96 22.438 17.173 22.438 17.437C22.438 17.701 22.225 17.914 21.961 17.914Z" fill="#C1694F"/>
<path d="M17.195 14.578C16.669 14.578 16.242 14.151 16.242 13.625V12.672C16.242 12.146 16.669 11.719 17.195 11.719C17.721 11.719 18.148 12.146 18.148 12.672V13.625C18.149 14.152 17.722 14.578 17.195 14.578ZM24.821 14.578C24.295 14.578 23.868 14.151 23.868 13.625V12.672C23.868 12.146 24.295 11.719 24.821 11.719C25.347 11.719 25.774 12.146 25.774 12.672V13.625C25.774 14.152 25.347 14.578 24.821 14.578Z" fill="#662113"/>
<path d="M21.134 21.894C18.38 21.894 17.534 21.189 17.393 21.046C17.137 20.79 17.137 20.375 17.393 20.119C17.641 19.871 18.039 19.864 18.295 20.096C18.347 20.133 19.016 20.583 21.134 20.583C23.334 20.583 23.97 20.098 23.976 20.093C24.232 19.838 24.633 19.85 24.889 20.108C25.145 20.364 25.131 20.791 24.875 21.046C24.733 21.189 23.888 21.894 21.134 21.894Z" fill="#C1694F"/>
<path d="M33 35C33 35.553 32.553 36 32 36H22C21.447 36 21 35.553 21 35C21 34.447 21.447 34 22 34H32C32.553 34 33 34.447 33 35Z" fill="#E1E8ED"/>
<path d="M20.24 22H3.75901C2.23501 22 0.281014 22.771 1.28101 25.531L4.35301 34.006C4.35401 34.006 4.75001 36 7.00001 36H27L23 24.76C22.562 23.438 21.765 22 20.24 22Z" fill="#E1E8ED"/>
<path d="M19.24 22H2.75901C1.23501 22 -0.718986 22.771 0.281014 25.531L3.35301 34.006C3.35401 34.006 3.75001 36 6.00001 36H26L22 24.76C21.562 23.438 20.765 22 19.24 22Z" fill="#99AAB5"/>
<path d="M14.019 29.283C14.543 30.855 14.118 32.413 13.07 32.762C12.022 33.112 10.748 32.121 10.224 30.549C9.7 28.977 10.125 27.419 11.173 27.07C12.221 26.721 13.496 27.711 14.019 29.283ZM19 24.75H3C2.586 24.75 2.25 24.414 2.25 24C2.25 23.586 2.586 23.25 3 23.25H19C19.414 23.25 19.75 23.586 19.75 24C19.75 24.414 19.414 24.75 19 24.75Z" fill="#E1E8ED"/>
</svg>
